HIERARCHY
ROOT Hips
{
 OFFSET 0.000000 0.000000 0.000000
 CHANNELS 6 Xposition Yposition Zposition Yrotation Xrotation Zrotation
 JOINT Chest
 {
  OFFSET 0.000000 9.588913 -0.003946
  CHANNELS 3 Yrotation Xrotation Zrotation
  JOINT Chest2
  {
   OFFSET 0.000000 9.541882 0.008053
   CHANNELS 3 Yrotation Xrotation Zrotation
   JOINT Chest3
   {
    OFFSET 0.000000 9.501360 0.000000
    CHANNELS 3 Yrotation Xrotation Zrotation
    JOINT Chest4
    {
     OFFSET 0.000000 9.491660 0.000000
     CHANNELS 3 Yrotation Xrotation Zrotation
     JOINT Neck
     {
      OFFSET 0.000000 14.331917 0.000000
      CHANNELS 3 Yrotation Xrotation Zrotation
      JOINT Head
      {
       OFFSET 0.000000 8.884799 0.017034
       CHANNELS 3 Yrotation Xrotation Zrotation
       End Site
       {
        OFFSET 0.000000 16.896195 0.008993
       }
      }
     }
     JOINT RightCollar
     {
      OFFSET -2.923010 9.499495 0.000000
      CHANNELS 3 Yrotation Xrotation Zrotation
      JOINT RightShoulder
      {
       OFFSET -13.795216 0.000000 0.000000
       CHANNELS 3 Yrotation Xrotation Zrotation
       JOINT RightElbow
       {
        OFFSET -30.272209 0.000000 0.000000
        CHANNELS 3 Yrotation Xrotation Zrotation
        JOINT RightWrist
        {
         OFFSET -24.478199 0.000000 0.000000
         CHANNELS 3 Yrotation Xrotation Zrotation
         End Site
         {
          OFFSET -18.090752 0.000000 0.000000
         }
        }
       }
      }
     }
     JOINT LeftCollar
     {
      OFFSET 2.923010 9.499495 0.000000
      CHANNELS 3 Yrotation Xrotation Zrotation
      JOINT LeftShoulder
      {
       OFFSET 13.795216 0.000000 0.000000
       CHANNELS 3 Yrotation Xrotation Zrotation
       JOINT LeftElbow
       {
        OFFSET 30.272209 0.000000 0.000000
        CHANNELS 3 Yrotation Xrotation Zrotation
        JOINT LeftWrist
        {
         OFFSET 24.478199 0.000000 0.000000
         CHANNELS 3 Yrotation Xrotation Zrotation
         End Site
         {
          OFFSET 18.090752 0.000000 0.000000
         }
        }
       }
      }
     }
    }
   }
  }
 }
 JOINT RightHip
 {
  OFFSET -7.826875 0.019532 0.001973
  CHANNELS 3 Yrotation Xrotation Zrotation
  JOINT RightKnee
  {
   OFFSET 0.000000 -40.546152 -0.001885
   CHANNELS 3 Yrotation Xrotation Zrotation
   JOINT RightAnkle
   {
    OFFSET 0.000000 -39.417092 -0.003189
    CHANNELS 3 Yrotation Xrotation Zrotation
    JOINT RightToe
    {
     OFFSET 0.000000 -7.579396 17.243563
     CHANNELS 3 Yrotation Xrotation Zrotation
     End Site
     {
      OFFSET 0.000000 -1.500329 6.694466
     }
    }
   }
  }
 }
 JOINT LeftHip
 {
  OFFSET 7.826875 0.019532 0.001973
  CHANNELS 3 Yrotation Xrotation Zrotation
  JOINT LeftKnee
  {
   OFFSET 0.000000 -40.546152 -0.001885
   CHANNELS 3 Yrotation Xrotation Zrotation
   JOINT LeftAnkle
   {
    OFFSET 0.000000 -39.417092 -0.003189
    CHANNELS 3 Yrotation Xrotation Zrotation
    JOINT LeftToe
    {
     OFFSET 0.000000 -7.579396 17.243563
     CHANNELS 3 Yrotation Xrotation Zrotation
     End Site
     {
      OFFSET 0.000000 -1.500329 6.694466
     }
    }
   }
  }
 }
}
MOTION
Frames: 5
Frame Time: 0.008333
-12.835759 88.578896 29.070371 35.475346 -6.636772 33.696654 -2.574803 -0.115903 10.185110 -1.478890 -0.117451 5.830677 -1.849882 -0.123254 7.288670 -1.478890 -0.117451 5.830677 1.061928 21.538610 -13.511612 4.362631 -1.655083 -15.609816 -7.477131 -7.314202 -18.761314 12.570991 -47.171286 8.300989 25.934628 -54.051670 -17.714344 1.776106 -13.612869 -18.548653 -7.714836 -11.086564 26.954377 5.202129 -41.597495 -23.337256 -12.841265 -31.501883 10.040878 -6.830143 -2.300158 19.810014 -2.651011 -9.431493 -41.995615 1.853117 37.296358 -2.273615 -2.737292 -22.650615 10.310548 -0.003089 -0.024296 0.217616 -3.290130 6.221207 -3.227663 -6.515387 7.158328 -1.536326 -24.859738 39.645628 -33.160418 -0.598590 -20.718978 -4.267751
-12.729895 88.617516 29.023166 35.392985 -6.616452 33.671552 -2.561597 -0.103110 10.179049 -1.472512 -0.109677 5.826578 -1.841788 -0.113659 7.283514 -1.472512 -0.109677 5.826578 1.083553 21.524806 -13.518141 4.389133 -1.669266 -15.623745 -7.390804 -7.335675 -18.846271 12.998824 -47.009922 7.958250 27.002226 -53.114111 -17.902834 1.730255 -13.499904 -18.326415 -7.664932 -11.106127 27.028471 4.567937 -41.772175 -22.884172 -14.449632 -30.980434 10.412084 -8.590495 -2.534554 20.244012 -2.600373 -9.268213 -41.995575 1.871475 37.051624 -2.297623 -2.781698 -22.519525 10.334062 -0.002589 -0.025287 0.226906 -3.221348 6.217337 -3.188061 -6.513431 7.131628 -1.533171 -24.808325 39.615884 -33.116360 -0.644242 -20.145501 -4.287346
-12.625721 88.655174 28.972757 35.306125 -6.590642 33.647276 -2.549168 -0.087499 10.171083 -1.466083 -0.100672 5.820235 -1.833611 -0.102533 7.275548 -1.466084 -0.100672 5.820234 1.100100 21.506552 -13.526650 4.410395 -1.688852 -15.638717 -7.300923 -7.349594 -18.930043 13.431113 -46.828260 7.611990 28.090333 -52.113205 -18.054484 1.733289 -13.361925 -18.102468 -7.607008 -11.129594 27.096326 3.966474 -41.972642 -22.456216 -16.172106 -30.408568 10.784283 -10.420813 -2.753115 20.599475 -2.553062 -9.130547 -42.000330 1.886687 36.820528 -2.321530 -2.806057 -22.390210 10.339877 -0.001007 -0.027960 0.242103 -3.135456 6.206259 -3.146235 -6.518555 7.112862 -1.531066 -24.756919 39.586673 -33.065565 -0.690871 -19.573369 -4.312631
-12.524060 88.691753 28.919915 35.215872 -6.558140 33.623664 -2.534600 -0.069788 10.162640 -1.457988 -0.090702 5.812337 -1.823337 -0.090235 7.265636 -1.457989 -0.090702 5.812337 1.109598 21.485936 -13.536651 4.424016 -1.711532 -15.653603 -7.215060 -7.365976 -19.017048 13.853454 -46.631430 7.274177 29.192150 -51.046590 -18.160828 1.824451 -13.195697 -17.900585 -7.551136 -11.157597 27.159019 3.406723 -42.181689 -22.056937 -18.023655 -29.828507 11.142084 -12.313194 -2.942166 20.857553 -2.512181 -9.023625 -42.012192 1.914813 36.605063 -2.330828 -2.816600 -22.264183 10.322428 0.002020 -0.032073 0.262476 -3.048624 6.184091 -3.103612 -6.521607 7.103414 -1.530591 -24.704759 39.558831 -33.015332 -0.738515 -19.006784 -4.339034
-12.425527 88.727352 28.865676 35.126175 -6.522982 33.600836 -2.517583 -0.049808 10.153225 -1.448274 -0.079814 5.803228 -1.811026 -0.076820 7.254206 -1.448275 -0.079814 5.803227 1.112434 21.464716 -13.549276 4.430689 -1.735000 -15.669926 -7.141799 -7.395360 -19.112296 14.264831 -46.406272 6.957931 30.317916 -49.911775 -18.237159 2.020937 -12.998065 -17.734520 -7.507797 -11.188027 27.216476 2.903803 -42.384639 -21.691105 -20.020161 -29.261939 11.479723 -14.264705 -3.074833 21.009146 -2.480481 -8.940239 -42.033764 1.968458 36.402253 -2.311691 -2.822433 -22.142955 10.277683 0.005929 -0.036232 0.287580 -2.976214 6.150509 -3.062443 -6.518688 7.101515 -1.530630 -24.656899 39.537096 -32.975149 -0.786602 -18.454896 -4.363246
